<svg width="18" height="22" viewBox="0 0 18 22" fill="none" xmlns="http://www.w3.org/2000/svg">
<path d="M7.66406 12.8848C7.65625 12.9082 7.60742 12.9062 7.51758 12.8789C7.42773 12.8516 7.30469 12.8066 7.14844 12.7441L6.91406 12.6387C6.57031 12.4824 6.23047 12.291 5.89453 12.0645C5.83984 12.0254 5.67969 11.9023 5.41406 11.6953C5.14844 11.4883 5 11.377 4.96875 11.3613C4.44531 12.166 3.92188 12.873 3.39844 13.4824C2.76562 14.2246 2.35547 14.6543 2.16797 14.7715C2.13672 14.7871 2.06055 14.8027 1.93945 14.8184C1.81836 14.834 1.74609 14.834 1.72266 14.8184C1.76953 14.7871 2.08984 14.4277 2.68359 13.7402C2.84766 13.5527 3.18164 13.1035 3.68555 12.3926C4.18945 11.6816 4.49609 11.2207 4.60547 11.0098C4.73828 10.7754 4.9375 10.3906 5.20312 9.85547C5.46875 9.32031 5.60938 9.01758 5.625 8.94727C5.5625 8.93945 5.13281 9.06836 4.33594 9.33398C4.27344 9.34961 4.16602 9.37891 4.01367 9.42188C3.86133 9.46484 3.72656 9.50195 3.60938 9.5332C3.49219 9.56445 3.42578 9.58398 3.41016 9.5918C3.39453 9.60742 3.38672 9.64844 3.38672 9.71484C3.38672 9.78125 3.38281 9.81836 3.375 9.82617C3.33594 9.9043 3.21484 9.96289 3.01172 10.002C2.83203 10.0566 2.64844 10.0566 2.46094 10.002C2.32031 9.9707 2.21094 9.88867 2.13281 9.75586C2.10156 9.70898 2.08203 9.61914 2.07422 9.48633C2.12109 9.4707 2.2168 9.45117 2.36133 9.42773C2.50586 9.4043 2.62109 9.38086 2.70703 9.35742C3.16016 9.23242 3.57031 9.10742 3.9375 8.98242C4.71875 8.70898 5.11719 8.57227 5.13281 8.57227C5.21094 8.55664 5.37891 8.48047 5.63672 8.34375C5.89453 8.20703 6.06641 8.12305 6.15234 8.0918C6.22266 8.06836 6.30664 8.03711 6.4043 7.99805C6.50195 7.95898 6.55859 7.9375 6.57422 7.93359C6.58984 7.92969 6.61328 7.93164 6.64453 7.93945C6.66016 8.0332 6.65625 8.16211 6.63281 8.32617C6.63281 8.3418 6.58398 8.44727 6.48633 8.64258C6.38867 8.83789 6.28516 9.04688 6.17578 9.26953C6.06641 9.49219 6 9.62305 5.97656 9.66211C5.78125 10.0527 5.48047 10.5645 5.07422 11.1973L5.82422 11.5254C5.91797 11.5723 6.20898 11.6973 6.69727 11.9004C7.18555 12.1035 7.44922 12.2129 7.48828 12.2285C7.51953 12.2363 7.56055 12.3359 7.61133 12.5273C7.66211 12.7188 7.67969 12.8379 7.66406 12.8848ZM5.26172 7.18945C5.28516 7.30664 5.26953 7.41602 5.21484 7.51758C5.12109 7.69727 4.92578 7.8457 4.62891 7.96289C4.39453 8.05664 4.16016 8.10352 3.92578 8.10352C3.72266 8.08008 3.53125 7.97852 3.35156 7.79883C3.24219 7.68164 3.17188 7.52148 3.14062 7.31836L3.15234 7.2832C3.17578 7.30664 3.25195 7.32617 3.38086 7.3418C3.50977 7.35742 3.61328 7.35742 3.69141 7.3418C3.76953 7.32617 3.99609 7.26367 4.37109 7.1543C4.65234 7.06055 4.86719 7.00586 5.01562 6.99023C5.14844 6.99023 5.23047 7.05664 5.26172 7.18945ZM13.4414 8.70117L14.1797 11.3613L12.5508 10.8691L13.4414 8.70117ZM0.457031 18.0762L8.58984 15.3574V3.26367L0.457031 5.99414V18.0762ZM15 14.3613L16.1953 14.7246L14.0742 7.02539L12.9023 6.66211L10.3711 12.9434L11.5664 13.3066L12.0938 12.0176L14.5664 12.7793L15 14.3613ZM9.10547 3.08789L15.8203 5.24414V0.791016L9.10547 3.08789ZM12.75 18.5918L14.6016 18.7441L13.9688 20.6191L13.5 19.8457C12.4844 20.4941 11.4062 20.916 10.2656 21.1113C9.8125 21.2051 9.45703 21.252 9.19922 21.252H8.21484C7.59766 21.252 6.81836 21.0996 5.87695 20.7949C4.93555 20.4902 4.21875 20.1582 3.72656 19.7988C3.66406 19.7441 3.63281 19.6816 3.63281 19.6113C3.63281 19.5488 3.65234 19.4961 3.69141 19.4531C3.73047 19.4102 3.78125 19.3887 3.84375 19.3887C3.875 19.3887 3.94531 19.418 4.05469 19.4766C4.16406 19.5352 4.2832 19.5996 4.41211 19.6699C4.54102 19.7402 4.62109 19.7832 4.65234 19.7988C5.22266 20.0879 5.8457 20.3281 6.52148 20.5195C7.19727 20.7109 7.8125 20.8066 8.36719 20.8066C9.10938 20.8066 9.76172 20.75 10.3242 20.6367C10.8867 20.5234 11.5 20.3262 12.1641 20.0449C12.2812 19.9902 12.4004 19.9297 12.5215 19.8633C12.6426 19.7969 12.7754 19.7227 12.9199 19.6406C13.0645 19.5586 13.1758 19.4941 13.2539 19.4473L12.75 18.5918ZM18 5.94727V18.5918L8.92969 15.709C8.82031 15.7559 7.35547 16.2539 4.53516 17.2031C1.71484 18.1523 0.277344 18.627 0.222656 18.627C0.121094 18.627 0.0507812 18.5762 0.0117188 18.4746C0.0117188 18.4668 0.0078125 18.4551 0 18.4395V5.80664C0.0234375 5.73633 0.0390625 5.69727 0.046875 5.68945C0.0859375 5.64258 0.164062 5.59961 0.28125 5.56055C1.11719 5.2793 1.69922 5.08398 2.02734 4.97461V0.474609L8.56641 2.79492C8.58203 2.79492 9.20898 2.58008 10.4473 2.15039C11.6855 1.7207 12.9199 1.29688 14.1504 0.878906C15.3809 0.460937 16.0117 0.251953 16.043 0.251953C16.1992 0.251953 16.2773 0.333984 16.2773 0.498047V5.39648L18 5.94727Z" fill="#1A1A1A" fill-opacity="0.8"/>
</svg>
