<svg width="16" height="16" viewBox="0 0 16 16" fill="none" xmlns="http://www.w3.org/2000/svg">
<path d="M5.1875 2.37515V0.686523C5.1875 0.537339 5.24676 0.394265 5.35225 0.288776C5.45774 0.183287 5.60082 0.124023 5.75 0.124023H10.25C10.3992 0.124023 10.5423 0.183287 10.6477 0.288776C10.7532 0.394265 10.8125 0.537339 10.8125 0.686523V2.37515H15.3125C15.4617 2.37515 15.6048 2.43441 15.7102 2.5399C15.8157 2.64539 15.875 2.78846 15.875 2.93765C15.875 3.08683 15.8157 3.22991 15.7102 3.3354C15.6048 3.44089 15.4617 3.50015 15.3125 3.50015H0.6875C0.538316 3.50015 0.395242 3.44089 0.289752 3.3354C0.184263 3.22991 0.125 3.08683 0.125 2.93765C0.125 2.78846 0.184263 2.64539 0.289752 2.5399C0.395242 2.43441 0.538316 2.37515 0.6875 2.37515H5.1875ZM6.3125 2.37515H9.6875V1.25015H6.3125V2.37515ZM2.375 15.8751C2.22582 15.8751 2.08274 15.8159 1.97725 15.7104C1.87176 15.6049 1.8125 15.4618 1.8125 15.3126V3.50015H14.1875V15.3126C14.1875 15.4618 14.1282 15.6049 14.0227 15.7104C13.9173 15.8159 13.7742 15.8751 13.625 15.8751H2.375ZM6.3125 12.5001C6.46168 12.5001 6.60476 12.4409 6.71025 12.3354C6.81574 12.2299 6.875 12.0868 6.875 11.9376V6.31265C6.875 6.16346 6.81574 6.02039 6.71025 5.9149C6.60476 5.80941 6.46168 5.75015 6.3125 5.75015C6.16332 5.75015 6.02024 5.80941 5.91475 5.9149C5.80926 6.02039 5.75 6.16346 5.75 6.31265V11.9376C5.75 12.0868 5.80926 12.2299 5.91475 12.3354C6.02024 12.4409 6.16332 12.5001 6.3125 12.5001ZM9.6875 12.5001C9.83668 12.5001 9.97976 12.4409 10.0852 12.3354C10.1907 12.2299 10.25 12.0868 10.25 11.9376V6.31265C10.25 6.16346 10.1907 6.02039 10.0852 5.9149C9.97976 5.80941 9.83668 5.75015 9.6875 5.75015C9.53832 5.75015 9.39524 5.80941 9.28975 5.9149C9.18426 6.02039 9.125 6.16346 9.125 6.31265V11.9376C9.125 12.0868 9.18426 12.2299 9.28975 12.3354C9.39524 12.4409 9.53832 12.5001 9.6875 12.5001Z" fill="#F5637E"/>
</svg>
