<svg width="15" height="15" viewBox="0 0 15 15" fill="none" xmlns="http://www.w3.org/2000/svg">
<path d="M14.0759 5.34239L9.86074 4.72979L7.97646 0.909772C7.925 0.805182 7.84033 0.720514 7.73574 0.669049C7.47344 0.539557 7.15469 0.647467 7.02353 0.909772L5.13926 4.72979L0.924121 5.34239C0.80791 5.35899 0.70166 5.41378 0.620312 5.49678C0.521968 5.59786 0.467775 5.73385 0.469643 5.87487C0.471511 6.01589 0.529286 6.15039 0.630273 6.24883L3.67998 9.22217L2.95947 13.4207C2.94258 13.5184 2.95338 13.6188 2.99067 13.7107C3.02796 13.8025 3.09023 13.8821 3.17043 13.9403C3.25062 13.9985 3.34554 14.0332 3.4444 14.0402C3.54327 14.0473 3.64213 14.0265 3.72979 13.9802L7.5 11.998L11.2702 13.9802C11.3731 14.035 11.4927 14.0532 11.6072 14.0333C11.8961 13.9835 12.0903 13.7096 12.0405 13.4207L11.32 9.22217L14.3697 6.24883C14.4527 6.16749 14.5075 6.06124 14.5241 5.94503C14.5689 5.6545 14.3664 5.38555 14.0759 5.34239Z" fill="#FFB930"/>
</svg>
