<svg width="27" height="25" viewBox="0 0 27 25" fill="none" xmlns="http://www.w3.org/2000/svg">
<path d="M25.4914 8.68976L17.805 7.57267L14.3689 0.60675C14.2751 0.416027 14.1207 0.261632 13.93 0.167785C13.4516 -0.0683482 12.8704 0.128429 12.6312 0.60675L9.1952 7.57267L1.50877 8.68976C1.29686 8.72003 1.10311 8.81993 0.954767 8.9713C0.775432 9.15562 0.676611 9.40361 0.680017 9.66075C0.683423 9.9179 0.788778 10.1632 0.972931 10.3427L6.53416 15.7647L5.22029 23.4208C5.18948 23.5989 5.20919 23.7821 5.27718 23.9495C5.34518 24.117 5.45873 24.2621 5.60497 24.3683C5.75122 24.4745 5.92429 24.5376 6.10458 24.5505C6.28487 24.5633 6.46515 24.5254 6.62498 24.441L13.5001 20.8264L20.3752 24.441C20.5629 24.5409 20.7808 24.5742 20.9897 24.5379C21.5165 24.4471 21.8707 23.9476 21.7799 23.4208L20.466 15.7647L26.0272 10.3427C26.1786 10.1943 26.2785 10.0006 26.3088 9.78868C26.3905 9.2589 26.0212 8.76847 25.4914 8.68976Z" fill="#FEBF1F"/>
</svg>
