<svg width="20" height="20" viewBox="0 0 20 20" fill="none" xmlns="http://www.w3.org/2000/svg">
<path d="M10 19.9999C4.48 19.9939 0.006 15.5199 0 9.9999V9.7999C0.11 4.3049 4.635 -0.0721009 10.13 -0.000100886C15.627 0.0738991 20.034 4.5689 19.998 10.0649C19.962 15.5619 15.497 19.9999 10 19.9999ZM9.984 17.9999H10C12.121 17.9978 14.1544 17.1534 15.6531 15.6525C17.1518 14.1516 17.9931 12.1169 17.992 9.9959C17.9909 7.87486 17.1476 5.84106 15.6474 4.34163C14.1473 2.84221 12.113 1.9999 9.992 1.9999C7.87096 1.9999 5.83674 2.84221 4.33656 4.34163C2.83638 5.84106 1.99306 7.87486 1.992 9.9959C1.99094 12.1169 2.83223 14.1516 4.3309 15.6525C5.82958 17.1534 7.86296 17.9978 9.984 17.9999ZM11 15.9999H9V13.9999H11V15.9999ZM11 12.9999H9C8.98448 12.3604 9.14045 11.7284 9.4517 11.1696C9.76295 10.6107 10.2181 10.1454 10.77 9.8219C11.43 9.3159 12 8.8799 12 7.9999C12 7.46947 11.7893 6.96076 11.4142 6.58569C11.0391 6.21061 10.5304 5.9999 10 5.9999C9.46957 5.9999 8.96086 6.21061 8.58579 6.58569C8.21071 6.96076 8 7.46947 8 7.9999H6V7.9099C6.01193 6.84903 6.44481 5.83636 7.20339 5.09465C7.96198 4.35295 8.98413 3.94296 10.045 3.9549C11.1059 3.96683 12.1185 4.39971 12.8602 5.15829C13.602 5.91688 14.0119 6.93903 14 7.9999C13.9647 8.532 13.8052 9.04842 13.5343 9.50775C13.2634 9.96708 12.8886 10.3565 12.44 10.6449C12.0344 10.8995 11.6933 11.2447 11.4434 11.6533C11.1936 12.0619 11.0418 12.5228 11 12.9999Z" fill="#1A1A1A" fill-opacity="0.8"/>
</svg>
