<svg width="22" height="23" viewBox="0 0 22 23" fill="none" xmlns="http://www.w3.org/2000/svg">
<path d="M21 20.0002V12.1741C21.0001 11.6297 20.889 11.0909 20.6735 10.5909C20.458 10.0909 20.1428 9.64007 19.747 9.26615L12.374 2.29815C12.0027 1.94708 11.511 1.75146 11 1.75146C10.489 1.75146 9.99734 1.94708 9.626 2.29815L2.253 9.26615C1.85722 9.64007 1.54195 10.0909 1.3265 10.5909C1.11104 11.0909 0.999942 11.6297 1 12.1741V20.0002C1 20.5306 1.21071 21.0393 1.58579 21.4144C1.96086 21.7894 2.46957 22.0002 3 22.0002H19C19.5304 22.0002 20.0391 21.7894 20.4142 21.4144C20.7893 21.0393 21 20.5306 21 20.0002Z" stroke="#1A1A1A" stroke-width="2" stroke-linecap="round" stroke-linejoin="round"/>
</svg>
