<svg width="28" height="36" viewBox="0 0 28 36" fill="none" xmlns="http://www.w3.org/2000/svg">
<path d="M14 0.5C10.3546 0.504301 6.85974 1.95434 4.28205 4.53203C1.70435 7.10973 0.254315 10.6046 0.250015 14.25C0.245649 17.229 1.21874 20.1272 3.02001 22.5C3.02001 22.5 3.39501 22.9937 3.45626 23.065L14 35.5L24.5488 23.0588C24.6038 22.9925 24.98 22.5 24.98 22.5L24.9813 22.4963C26.7816 20.1245 27.7543 17.2277 27.75 14.25C27.7457 10.6046 26.2957 7.10973 23.718 4.53203C21.1403 1.95434 17.6454 0.504301 14 0.5ZM14 19.25C13.0111 19.25 12.0444 18.9568 11.2222 18.4073C10.3999 17.8579 9.75905 17.077 9.38062 16.1634C9.00218 15.2498 8.90316 14.2445 9.09609 13.2745C9.28901 12.3046 9.76522 11.4137 10.4645 10.7145C11.1637 10.0152 12.0547 9.539 13.0246 9.34607C13.9945 9.15315 14.9998 9.25216 15.9134 9.6306C16.8271 10.009 17.608 10.6499 18.1574 11.4721C18.7068 12.2944 19 13.2611 19 14.25C18.9984 15.5756 18.471 16.8464 17.5337 17.7837C16.5964 18.721 15.3256 19.2483 14 19.25Z" fill="#00854E"/>
</svg>
