<svg width="17" height="21" viewBox="0 0 17 21" fill="none" xmlns="http://www.w3.org/2000/svg">
<path d="M14.9688 8.34375C14.9688 6.62813 14.2872 4.98278 13.0741 3.76965C11.861 2.55653 10.2156 1.875 8.5 1.875C6.78438 1.875 5.13903 2.55653 3.9259 3.76965C2.71278 4.98278 2.03125 6.62813 2.03125 8.34375C2.03125 10.9974 4.15444 14.456 8.5 18.5989C12.8456 14.456 14.9688 10.9974 14.9688 8.34375ZM8.5 20.5625C3.22869 15.7713 0.59375 11.6974 0.59375 8.34375C0.59375 6.24688 1.42673 4.2359 2.90944 2.75319C4.39215 1.27048 6.40313 0.4375 8.5 0.4375C10.5969 0.4375 12.6079 1.27048 14.0906 2.75319C15.5733 4.2359 16.4062 6.24688 16.4062 8.34375C16.4062 11.6974 13.7713 15.7713 8.5 20.5625Z" fill="#1A1A1A" fill-opacity="0.7"/>
<path d="M8.5 10.5C9.07187 10.5 9.62032 10.2728 10.0247 9.86845C10.4291 9.46407 10.6562 8.91562 10.6562 8.34375C10.6562 7.77188 10.4291 7.22343 10.0247 6.81905C9.62032 6.41468 9.07187 6.1875 8.5 6.1875C7.92813 6.1875 7.37968 6.41468 6.9753 6.81905C6.57093 7.22343 6.34375 7.77188 6.34375 8.34375C6.34375 8.91562 6.57093 9.46407 6.9753 9.86845C7.37968 10.2728 7.92813 10.5 8.5 10.5ZM8.5 11.9375C7.54688 11.9375 6.63279 11.5589 5.95884 10.8849C5.28488 10.211 4.90625 9.29687 4.90625 8.34375C4.90625 7.39063 5.28488 6.47654 5.95884 5.80259C6.63279 5.12863 7.54688 4.75 8.5 4.75C9.45312 4.75 10.3672 5.12863 11.0412 5.80259C11.7151 6.47654 12.0938 7.39063 12.0938 8.34375C12.0938 9.29687 11.7151 10.211 11.0412 10.8849C10.3672 11.5589 9.45312 11.9375 8.5 11.9375Z" fill="#1A1A1A" fill-opacity="0.7"/>
</svg>
