<svg width="20" height="20" viewBox="0 0 20 20" fill="none" xmlns="http://www.w3.org/2000/svg">
<path d="M12.66 7.76019C14.48 7.76019 15.6 5.1002 15.6 3.4202C15.6 2.0202 14.9 0.340195 13.5 0.340195C11.68 0.340195 10.56 3.0002 10.56 4.68019C10.56 6.08019 11.26 7.76019 12.66 7.76019ZM7.34 7.76019C8.74 7.76019 9.43999 6.08019 9.43999 4.68019C9.43999 2.8602 8.31999 0.200195 6.49999 0.200195C5.09999 0.200195 4.4 1.8802 4.4 3.28019C4.26 5.10019 5.38 7.76019 7.34 7.76019ZM17.7 6.3602C15.88 6.3602 14.62 8.8802 14.62 10.7002C14.62 11.9602 15.18 13.2202 16.44 13.2202C18.26 13.2202 19.52 10.7002 19.52 8.88019C19.52 7.62019 18.82 6.3602 17.7 6.3602ZM5.52 10.7002C5.52 8.8802 4.12 6.3602 2.44 6.3602C1.18 6.3602 0.619995 7.62019 0.619995 8.88019C0.619995 10.7002 2.02 13.2202 3.7 13.2202C4.96 13.2202 5.52 11.9602 5.52 10.7002ZM9.99999 10.4202C7.19999 10.4202 3.42 14.9002 3.42 17.9802C3.42 19.3802 4.4 19.8002 5.52 19.8002C7.2 19.8002 8.45999 18.6802 9.99999 18.6802C11.4 18.6802 12.66 19.8002 14.2 19.8002C15.32 19.8002 16.58 19.5202 16.58 17.9802C16.58 14.9002 12.8 10.4202 9.99999 10.4202Z" fill="#1A1A1A" fill-opacity="0.8"/>
</svg>
