<svg width="17" height="21" viewBox="0 0 17 21" fill="none" xmlns="http://www.w3.org/2000/svg">
<path d="M16.0937 16.0103L14.75 14.6665V9.45817C14.75 6.26025 13.0417 3.58317 10.0625 2.87484V2.1665C10.0625 1.30192 9.36458 0.604004 8.49999 0.604004C7.63541 0.604004 6.93749 1.30192 6.93749 2.1665V2.87484C3.94791 3.58317 2.24999 6.24984 2.24999 9.45817V14.6665L0.906243 16.0103C0.249993 16.6665 0.708326 17.7915 1.63541 17.7915H15.3542C16.2917 17.7915 16.75 16.6665 16.0937 16.0103ZM12.6667 15.7082H4.33333V9.45817C4.33333 6.87484 5.90624 4.77067 8.49999 4.77067C11.0937 4.77067 12.6667 6.87484 12.6667 9.45817V15.7082ZM8.49999 20.9165C9.64583 20.9165 10.5833 19.979 10.5833 18.8332H6.41666C6.41666 19.3857 6.63615 19.9156 7.02685 20.3063C7.41756 20.697 7.94746 20.9165 8.49999 20.9165Z" fill="#1A1A1A"/>
</svg>
