<svg width="21" height="19" viewBox="0 0 21 19" fill="none" xmlns="http://www.w3.org/2000/svg">
<path d="M8.41683 13.6667V12.625H1.13558L1.12516 16.7917C1.12516 17.9479 2.05225 18.875 3.2085 18.875H17.7918C18.9481 18.875 19.8752 17.9479 19.8752 16.7917V12.625H12.5835V13.6667H8.41683ZM18.8335 4.29167H14.6564V2.20833L12.5731 0.125H8.40641L6.32308 2.20833V4.29167H2.16683C1.021 4.29167 0.0834961 5.22917 0.0834961 6.375V9.5C0.0834961 10.6562 1.01058 11.5833 2.16683 11.5833H8.41683V9.5H12.5835V11.5833H18.8335C19.9793 11.5833 20.9168 10.6458 20.9168 9.5V6.375C20.9168 5.22917 19.9793 4.29167 18.8335 4.29167ZM12.5835 4.29167H8.41683V2.20833H12.5835V4.29167Z" fill="#1A1A1A" fill-opacity="0.5"/>
</svg>
