<svg width="20" height="23" viewBox="0 0 20 23" fill="none" xmlns="http://www.w3.org/2000/svg">
<path d="M10 11.4805C12.7614 11.4805 15 9.24189 15 6.48047C15 3.71904 12.7614 1.48047 10 1.48047C7.23858 1.48047 5 3.71904 5 6.48047C5 9.24189 7.23858 11.4805 10 11.4805Z" stroke="#1A1A1A" stroke-width="2"/>
<path d="M15 13.4805H15.352C16.0831 13.4807 16.7889 13.7478 17.3369 14.2317C17.8849 14.7157 18.2373 15.383 18.328 16.1085L18.719 19.2325C18.7542 19.5139 18.7291 19.7996 18.6454 20.0706C18.5617 20.3416 18.4214 20.5917 18.2336 20.8043C18.0459 21.0169 17.8151 21.1871 17.5566 21.3037C17.298 21.4203 17.0176 21.4805 16.734 21.4805H3.266C2.98238 21.4805 2.70199 21.4203 2.44345 21.3037C2.1849 21.1871 1.9541 21.0169 1.76638 20.8043C1.57865 20.5917 1.43829 20.3416 1.3546 20.0706C1.27092 19.7996 1.24583 19.5139 1.281 19.2325L1.671 16.1085C1.7617 15.3827 2.11442 14.715 2.66283 14.2311C3.21125 13.7471 3.91758 13.4802 4.649 13.4805H5" stroke="#1A1A1A" stroke-width="2" stroke-linecap="round" stroke-linejoin="round"/>
</svg>
