<svg width="37" height="37" viewBox="0 0 37 37" fill="none" xmlns="http://www.w3.org/2000/svg">
<path d="M18.5003 36.2938C18.0399 36.2938 17.6542 36.1383 17.3433 35.8274C17.0313 35.5154 16.8753 35.1292 16.8753 34.6688V33.0438C13.4899 32.6646 10.5855 31.2633 8.16204 28.8399C5.73754 26.4154 4.33571 23.5105 3.95654 20.125H2.33154C1.87113 20.125 1.48492 19.969 1.17292 19.657C0.862001 19.3461 0.706543 18.9605 0.706543 18.5C0.706543 18.0396 0.862001 17.6534 1.17292 17.3414C1.48492 17.0305 1.87113 16.875 2.33154 16.875H3.95654C4.33571 13.4896 5.73754 10.5847 8.16204 8.16017C10.5855 5.73676 13.4899 4.33547 16.8753 3.9563V2.3313C16.8753 1.87088 17.0313 1.48467 17.3433 1.17267C17.6542 0.861757 18.0399 0.706299 18.5003 0.706299C18.9607 0.706299 19.3469 0.861757 19.6589 1.17267C19.9698 1.48467 20.1253 1.87088 20.1253 2.3313V3.9563C23.5107 4.33547 26.4157 5.73676 28.8402 8.16017C31.2636 10.5847 32.6649 13.4896 33.044 16.875H34.669C35.1295 16.875 35.5157 17.0305 35.8277 17.3414C36.1386 17.6534 36.294 18.0396 36.294 18.5C36.294 18.9605 36.1386 19.3461 35.8277 19.657C35.5157 19.969 35.1295 20.125 34.669 20.125H33.044C32.6649 23.5105 31.2636 26.4154 28.8402 28.8399C26.4157 31.2633 23.5107 32.6646 20.1253 33.0438V34.6688C20.1253 35.1292 19.9698 35.5154 19.6589 35.8274C19.3469 36.1383 18.9607 36.2938 18.5003 36.2938ZM18.5003 29.8751C21.642 29.8751 24.3232 28.7646 26.544 26.5438C28.7649 24.323 29.8753 21.6417 29.8753 18.5C29.8753 15.3584 28.7649 12.6771 26.544 10.4563C24.3232 8.23547 21.642 7.12505 18.5003 7.12505C15.3586 7.12505 12.6774 8.23547 10.4565 10.4563C8.23571 12.6771 7.12529 15.3584 7.12529 18.5C7.12529 21.6417 8.23571 24.323 10.4565 26.5438C12.6774 28.7646 15.3586 29.8751 18.5003 29.8751ZM18.5003 25C16.7128 25 15.1826 24.3636 13.9097 23.0907C12.6368 21.8178 12.0003 20.2875 12.0003 18.5C12.0003 16.7125 12.6368 15.1823 13.9097 13.9094C15.1826 12.6365 16.7128 12 18.5003 12C20.2878 12 21.818 12.6365 23.0909 13.9094C24.3638 15.1823 25.0003 16.7125 25.0003 18.5C25.0003 20.2875 24.3638 21.8178 23.0909 23.0907C21.818 24.3636 20.2878 25 18.5003 25ZM18.5003 21.75C19.394 21.75 20.1594 21.4315 20.7964 20.7945C21.4323 20.1586 21.7503 19.3938 21.7503 18.5C21.7503 17.6063 21.4323 16.8409 20.7964 16.2039C20.1594 15.568 19.394 15.25 18.5003 15.25C17.6065 15.25 16.8417 15.568 16.2058 16.2039C15.5688 16.8409 15.2503 17.6063 15.2503 18.5C15.2503 19.3938 15.5688 20.1586 16.2058 20.7945C16.8417 21.4315 17.6065 21.75 18.5003 21.75ZM18.5003 21.75C17.6065 21.75 16.8417 21.4315 16.2058 20.7945C15.5688 20.1586 15.2503 19.3938 15.2503 18.5C15.2503 17.6063 15.5688 16.8409 16.2058 16.2039C16.8417 15.568 17.6065 15.25 18.5003 15.25C19.394 15.25 20.1594 15.568 20.7964 16.2039C21.4323 16.8409 21.7503 17.6063 21.7503 18.5C21.7503 19.3938 21.4323 20.1586 20.7964 20.7945C20.1594 21.4315 19.394 21.75 18.5003 21.75Z" fill="#00854E"/>
</svg>
