<svg width="19" height="19" viewBox="0 0 19 19" fill="none" xmlns="http://www.w3.org/2000/svg">
<path d="M15.3438 2.06268C14.9211 2.06268 14.5157 2.23057 14.2169 2.52942C13.918 2.82826 13.7501 3.23358 13.7501 3.65621C13.7501 4.07884 13.918 4.48416 14.2169 4.783C14.5157 5.08185 14.9211 5.24974 15.3438 5.24974C15.7665 5.24974 16.1718 5.08185 16.4707 4.783C16.7696 4.48416 16.9375 4.07884 16.9375 3.65621C16.9375 3.23358 16.7696 2.82826 16.4707 2.52942C16.1718 2.23057 15.7665 2.06268 15.3438 2.06268ZM12.6876 3.65621C12.6875 3.03307 12.9066 2.42974 13.3064 1.95179C13.7063 1.47383 14.2616 1.15168 14.875 1.0417C15.4884 0.931717 16.121 1.04091 16.662 1.35017C17.2031 1.65943 17.6182 2.14906 17.8346 2.73341C18.0511 3.31775 18.0552 3.9596 17.8461 4.54664C17.6371 5.13369 17.2283 5.62856 16.6912 5.94467C16.1542 6.26078 15.523 6.37799 14.9082 6.27581C14.2935 6.17363 13.7342 5.85856 13.3283 5.38572L6.19051 8.70025C6.3546 9.22021 6.3546 9.77807 6.19051 10.298L13.3283 13.6126C13.7573 13.1136 14.3564 12.7917 15.0093 12.7092C15.6622 12.6267 16.3226 12.7895 16.8623 13.1661C17.402 13.5426 17.7827 14.1061 17.9306 14.7473C18.0785 15.3885 17.983 16.0618 17.6628 16.6366C17.3425 17.2115 16.8202 17.647 16.1971 17.8587C15.5739 18.0705 14.8944 18.0434 14.2901 17.7827C13.6858 17.5221 13.1998 17.0464 12.9263 16.4478C12.6528 15.8493 12.6113 15.1706 12.8098 14.5432L5.67202 11.2287C5.31867 11.6404 4.84769 11.934 4.32243 12.0701C3.79717 12.2062 3.24283 12.1782 2.73397 11.9898C2.22512 11.8014 1.78617 11.4618 1.47618 11.0165C1.16618 10.5712 1 10.0417 1 9.49914C1 8.9566 1.16618 8.42708 1.47618 7.9818C1.78617 7.53652 2.22512 7.19685 2.73397 7.00848C3.24283 6.82011 3.79717 6.79208 4.32243 6.92816C4.84769 7.06424 5.31867 7.3579 5.67202 7.76964L12.8098 4.4551C12.7285 4.1966 12.6873 3.92718 12.6876 3.65621ZM3.65649 7.90562C3.23381 7.90562 2.82844 8.0735 2.52956 8.37235C2.23067 8.67119 2.06276 9.07651 2.06276 9.49914C2.06276 9.92177 2.23067 10.3271 2.52956 10.6259C2.82844 10.9248 3.23381 11.0927 3.65649 11.0927C4.07917 11.0927 4.48454 10.9248 4.78342 10.6259C5.0823 10.3271 5.25021 9.92177 5.25021 9.49914C5.25021 9.07651 5.0823 8.67119 4.78342 8.37235C4.48454 8.0735 4.07917 7.90562 3.65649 7.90562ZM15.3438 13.7485C14.9211 13.7485 14.5157 13.9164 14.2169 14.2153C13.918 14.5141 13.7501 14.9194 13.7501 15.3421C13.7501 15.7647 13.918 16.17 14.2169 16.4689C14.5157 16.7677 14.9211 16.9356 15.3438 16.9356C15.7665 16.9356 16.1718 16.7677 16.4707 16.4689C16.7696 16.17 16.9375 15.7647 16.9375 15.3421C16.9375 14.9194 16.7696 14.5141 16.4707 14.2153C16.1718 13.9164 15.7665 13.7485 15.3438 13.7485Z" fill="#1A1A1A" fill-opacity="0.8" stroke="#1A1A1A" stroke-width="0.2"/>
</svg>
