<svg width="27" height="25" viewBox="0 0 27 25" fill="none" xmlns="http://www.w3.org/2000/svg">
<mask id="path-1-inside-1_125_944" fill="white">
<path d="M25.4914 8.68976L17.805 7.57267L14.3689 0.60675C14.2751 0.416027 14.1207 0.261632 13.93 0.167785C13.4516 -0.0683482 12.8704 0.128429 12.6312 0.60675L9.1952 7.57267L1.50877 8.68976C1.29686 8.72003 1.10311 8.81993 0.954767 8.9713C0.775432 9.15562 0.676611 9.40361 0.680017 9.66075C0.683423 9.9179 0.788778 10.1632 0.972931 10.3427L6.53416 15.7647L5.22029 23.4208C5.18948 23.5989 5.20919 23.7821 5.27718 23.9495C5.34518 24.117 5.45873 24.2621 5.60497 24.3683C5.75122 24.4745 5.92429 24.5376 6.10458 24.5505C6.28487 24.5633 6.46515 24.5254 6.62498 24.441L13.5001 20.8264L20.3752 24.441C20.5629 24.5409 20.7808 24.5742 20.9897 24.5379C21.5165 24.4471 21.8707 23.9476 21.7799 23.4208L20.466 15.7647L26.0272 10.3427C26.1786 10.1943 26.2785 10.0006 26.3088 9.78868C26.3905 9.2589 26.0212 8.76847 25.4914 8.68976Z"/>
</mask>
<path d="M17.805 7.57267L16.0113 8.45742L16.4765 9.40062L17.5173 9.55188L17.805 7.57267ZM14.3689 0.60675L12.5744 1.48977L12.5753 1.4915L14.3689 0.60675ZM13.93 0.167785L13.0446 1.96116L13.0469 1.9623L13.93 0.167785ZM12.6312 0.60675L10.8424 -0.287691L10.8376 -0.277999L12.6312 0.60675ZM9.1952 7.57267L9.48284 9.55188L10.5236 9.40062L10.9889 8.45742L9.1952 7.57267ZM1.50877 8.68976L1.79161 10.6697L1.79641 10.669L1.50877 8.68976ZM0.954767 8.9713L-0.473668 7.57143L-0.478716 7.57662L0.954767 8.9713ZM0.972931 10.3427L2.3691 8.91066L2.36897 8.91053L0.972931 10.3427ZM6.53416 15.7647L8.50535 16.1029L8.68319 15.0666L7.93033 14.3326L6.53416 15.7647ZM5.22029 23.4208L7.19102 23.7617L7.19148 23.7591L5.22029 23.4208ZM6.62498 24.441L5.69426 22.6708L5.69117 22.6724L6.62498 24.441ZM13.5001 20.8264L14.4308 19.0561L13.5001 18.5668L12.5694 19.0561L13.5001 20.8264ZM20.3752 24.441L21.3149 22.6755L21.3059 22.6708L20.3752 24.441ZM20.9897 24.5379L20.6499 22.567L20.647 22.5675L20.9897 24.5379ZM21.7799 23.4208L19.8087 23.7591L19.8089 23.7606L21.7799 23.4208ZM20.466 15.7647L19.0698 14.3326L18.317 15.0666L18.4948 16.1029L20.466 15.7647ZM26.0272 10.3427L27.4234 11.7747L27.4271 11.7711L26.0272 10.3427ZM26.3088 9.78868L24.3322 9.48372L24.3305 9.49477L24.3289 9.50584L26.3088 9.78868ZM25.779 6.71055L18.0926 5.59346L17.5173 9.55188L25.2037 10.669L25.779 6.71055ZM19.5986 6.68792L16.1626 -0.277999L12.5753 1.4915L16.0113 8.45742L19.5986 6.68792ZM16.1634 -0.276266C15.8747 -0.863093 15.3998 -1.33797 14.813 -1.62673L13.0469 1.9623C12.8416 1.86124 12.6755 1.69515 12.5744 1.48976L16.1634 -0.276266ZM14.8153 -1.62559C13.344 -2.35192 11.5707 -1.74434 10.8424 -0.287678L14.4201 1.50118C14.1701 2.0012 13.5593 2.21523 13.0446 1.96116L14.8153 -1.62559ZM10.8376 -0.277999L7.40153 6.68792L10.9889 8.45742L14.4249 1.4915L10.8376 -0.277999ZM8.90755 5.59346L1.22113 6.71055L1.79641 10.669L9.48284 9.55188L8.90755 5.59346ZM1.22593 6.70986C0.570417 6.8035 -0.0235566 7.11216 -0.473659 7.57144L2.38319 10.3712C2.22977 10.5277 2.0233 10.6366 1.79161 10.6697L1.22593 6.70986ZM-0.478716 7.57662C-1.02771 8.14089 -1.33023 8.90004 -1.31981 9.68724L2.67984 9.63427C2.68346 9.90717 2.57858 10.1704 2.38825 10.366L-0.478716 7.57662ZM-1.31981 9.68724C-1.30938 10.4744 -0.986859 11.2253 -0.42311 11.7748L2.36897 8.91053C2.56441 9.10105 2.67623 9.36136 2.67984 9.63427L-1.31981 9.68724ZM-0.423239 11.7747L5.13799 17.1967L7.93033 14.3326L2.3691 8.91066L-0.423239 11.7747ZM4.56298 15.4264L3.24911 23.0825L7.19148 23.7591L8.50535 16.1029L4.56298 15.4264ZM3.24957 23.0799C3.15505 23.6262 3.21551 24.1882 3.42409 24.7019L7.13028 23.1972C7.20288 23.376 7.22392 23.5716 7.19102 23.7617L3.24957 23.0799ZM3.42409 24.7019C3.63267 25.2157 3.98103 25.6607 4.42967 25.9865L6.78028 22.7501C6.93643 22.8635 7.05768 23.0184 7.13028 23.1972L3.42409 24.7019ZM4.42967 25.9865C4.8783 26.3124 5.40926 26.506 5.96233 26.5454L6.24683 22.5555C6.43933 22.5693 6.62413 22.6367 6.78028 22.7501L4.42967 25.9865ZM5.96233 26.5454C6.51541 26.5849 7.06847 26.4685 7.55879 26.2096L5.69117 22.6724C5.86183 22.5823 6.05433 22.5418 6.24683 22.5555L5.96233 26.5454ZM7.5557 26.2113L14.4308 22.5966L12.5694 19.0561L5.69426 22.6708L7.5557 26.2113ZM12.5694 22.5966L19.4445 26.2113L21.3059 22.6708L14.4308 19.0561L12.5694 22.5966ZM19.4355 26.2065C20.0243 26.5199 20.6946 26.6193 21.3324 26.5083L20.647 22.5675C20.8671 22.5292 21.1015 22.562 21.3149 22.6755L19.4355 26.2065ZM21.3295 26.5088C22.9399 26.2312 24.0301 24.7012 23.7508 23.081L19.8089 23.7606C19.7112 23.194 20.0931 22.663 20.6499 22.567L21.3295 26.5088ZM23.7511 23.0825L22.4372 15.4264L18.4948 16.1029L19.8087 23.7591L23.7511 23.0825ZM21.8622 17.1967L27.4234 11.7747L24.6311 8.91066L19.0698 14.3326L21.8622 17.1967ZM27.4271 11.7711C27.8864 11.321 28.195 10.727 28.2887 10.0715L24.3289 9.50584C24.362 9.27416 24.4708 9.06769 24.6274 8.91426L27.4271 11.7711ZM28.2854 10.0936C28.5398 8.4446 27.3885 6.94967 25.7853 6.71147L25.1975 10.668C24.6538 10.5873 24.2412 10.0732 24.3322 9.48372L28.2854 10.0936Z" fill="#1A1A1A" fill-opacity="0.3" mask="url(#path-1-inside-1_125_944)"/>
</svg>
