<svg width="168" height="168" viewBox="0 0 168 168" fill="none" xmlns="http://www.w3.org/2000/svg">
<circle cx="84" cy="84" r="84" fill="#EB4462" fill-opacity="0.2"/>
<g filter="url(#filter0_d_65_1517)">
<circle cx="84" cy="84" r="67.4545" fill="#FF8762"/>
</g>
<path d="M91.7 62.6858L110.128 93.3786C112.776 97.7868 111.475 103.587 107.221 106.331C105.793 107.256 104.129 107.748 102.428 107.75H65.5695C60.5617 107.75 56.5 103.543 56.5 98.3478C56.5 96.5906 56.9757 94.8718 57.8695 93.3786L76.3 62.6858C78.9455 58.2776 84.539 56.9273 88.7932 59.6718C89.9702 60.4308 90.9657 61.4621 91.7 62.6858ZM85.595 64.9931C85.2583 64.7766 84.8813 64.6305 84.4866 64.5638C84.0919 64.497 83.6878 64.511 83.2986 64.6048C82.9095 64.6986 82.5434 64.8703 82.2225 65.1096C81.9016 65.3489 81.6325 65.6507 81.4315 65.9968L63.0037 96.6951C62.7044 97.1954 62.5466 97.7676 62.5472 98.3506C62.5472 100.083 63.9002 101.486 65.5722 101.486H102.425C102.991 101.486 103.544 101.321 104.023 101.013C104.709 100.556 105.194 99.8529 105.374 99.0486C105.555 98.2443 105.419 97.4013 104.993 96.6951L86.5657 65.9968C86.3241 65.5927 85.9929 65.2493 85.5977 64.9931H85.595ZM84 96.7501C83.2707 96.7501 82.5712 96.4604 82.0555 95.9446C81.5397 95.4289 81.25 94.7294 81.25 94.0001C81.25 93.2708 81.5397 92.5713 82.0555 92.0556C82.5712 91.5398 83.2707 91.2501 84 91.2501C84.7293 91.2501 85.4288 91.5398 85.9445 92.0556C86.4603 92.5713 86.75 93.2708 86.75 94.0001C86.75 94.7294 86.4603 95.4289 85.9445 95.9446C85.4288 96.4604 84.7293 96.7501 84 96.7501ZM84 72.0001C84.7293 72.0001 85.4288 72.2898 85.9445 72.8056C86.4603 73.3213 86.75 74.0208 86.75 74.7501V85.7501C86.75 86.4794 86.4603 87.1789 85.9445 87.6946C85.4288 88.2104 84.7293 88.5001 84 88.5001C83.2707 88.5001 82.5712 88.2104 82.0555 87.6946C81.5397 87.1789 81.25 86.4794 81.25 85.7501V74.7501C81.25 74.0208 81.5397 73.3213 82.0555 72.8056C82.5712 72.2898 83.2707 72.0001 84 72.0001Z" fill="white"/>
<defs>
<filter id="filter0_d_65_1517" x="6.54541" y="6.54541" width="158.909" height="158.909" filterUnits="userSpaceOnUse" color-interpolation-filters="sRGB">
<feFlood flood-opacity="0" result="BackgroundImageFix"/>
<feColorMatrix in="SourceAlpha" type="matrix" values="0 0 0 0 0 0 0 0 0 0 0 0 0 0 0 0 0 0 127 0" result="hardAlpha"/>
<feMorphology radius="2" operator="dilate" in="SourceAlpha" result="effect1_dropShadow_65_1517"/>
<feOffset dx="2" dy="2"/>
<feGaussianBlur stdDeviation="5"/>
<feComposite in2="hardAlpha" operator="out"/>
<feColorMatrix type="matrix" values="0 0 0 0 0 0 0 0 0 0 0 0 0 0 0 0 0 0 0.25 0"/>
<feBlend mode="normal" in2="BackgroundImageFix" result="effect1_dropShadow_65_1517"/>
<feBlend mode="normal" in="SourceGraphic" in2="effect1_dropShadow_65_1517" result="shape"/>
</filter>
</defs>
</svg>
