<svg width="124" height="124" viewBox="0 0 124 124" fill="none" xmlns="http://www.w3.org/2000/svg">
<circle cx="61" cy="61" r="61" fill="#EB4462" fill-opacity="0.3"/>
<g filter="url(#filter0_d_16_151)">
<circle cx="61" cy="61" r="48.9848" fill="#EB4462"/>
</g>
<path d="M60.0213 44.7684C60.1501 44.6393 60.3031 44.5369 60.4715 44.467C60.64 44.3971 60.8205 44.3611 61.0029 44.3611C61.1852 44.3611 61.3658 44.3971 61.5342 44.467C61.7027 44.5369 61.8556 44.6393 61.9844 44.7684C65.4226 48.2177 69.2323 49.9091 73.4774 49.9091C73.8451 49.9091 74.1977 50.0551 74.4577 50.3151C74.7177 50.5751 74.8637 50.9278 74.8637 51.2954V53.7937C74.0068 53.2975 73.0676 52.9594 72.091 52.7955V52.6291C67.9874 52.3186 64.2858 50.6161 61.0001 47.6604C57.7117 50.6161 54.0128 52.3186 49.9092 52.6291V59.6164C49.9092 63.5925 50.9157 66.7257 52.7402 69.1657C54.0433 70.9069 55.8456 72.4042 58.2274 73.6103V76.6714C50.8907 73.4689 47.1365 67.7211 47.1365 59.6192V51.2954C47.1365 50.9278 47.2825 50.5751 47.5425 50.3151C47.8025 50.0551 48.1552 49.9091 48.5228 49.9091C52.7651 49.9091 56.5748 48.2149 60.0213 44.7684ZM65.1592 61V63.7727H63.7728C63.0375 63.7727 62.3322 64.0648 61.8122 64.5848C61.2922 65.1048 61.0001 65.8101 61.0001 66.5454V77.6363C61.0001 78.3717 61.2922 79.077 61.8122 79.597C62.3322 80.1169 63.0375 80.4091 63.7728 80.4091H77.6365C78.3718 80.4091 79.0771 80.1169 79.5971 79.597C80.1171 79.077 80.4092 78.3717 80.4092 77.6363V66.5454C80.4092 65.8101 80.1171 65.1048 79.5971 64.5848C79.0771 64.0648 78.3718 63.7727 77.6365 63.7727H76.2501V61C76.2501 59.5292 75.6659 58.1187 74.6259 57.0788C73.5859 56.0388 72.1754 55.4545 70.7047 55.4545C69.2339 55.4545 67.8234 56.0388 66.7834 57.0788C65.7435 58.1187 65.1592 59.5292 65.1592 61ZM67.9319 63.7727V61C67.9319 60.2646 68.2241 59.5594 68.744 59.0394C69.264 58.5194 69.9693 58.2273 70.7047 58.2273C71.44 58.2273 72.1453 58.5194 72.6653 59.0394C73.1853 59.5594 73.4774 60.2646 73.4774 61V63.7727H67.9319ZM70.7047 70.0113C71.2562 70.0113 71.7851 70.2304 72.1751 70.6204C72.5651 71.0104 72.7842 71.5394 72.7842 72.0909C72.7842 72.6424 72.5651 73.1714 72.1751 73.5614C71.7851 73.9513 71.2562 74.1704 70.7047 74.1704C70.1531 74.1704 69.6242 73.9513 69.2342 73.5614C68.8442 73.1714 68.6251 72.6424 68.6251 72.0909C68.6251 71.5394 68.8442 71.0104 69.2342 70.6204C69.6242 70.2304 70.1531 70.0113 70.7047 70.0113Z" fill="white"/>
<defs>
<filter id="filter0_d_16_151" x="2.01514" y="2.01514" width="121.97" height="121.97" filterUnits="userSpaceOnUse" color-interpolation-filters="sRGB">
<feFlood flood-opacity="0" result="BackgroundImageFix"/>
<feColorMatrix in="SourceAlpha" type="matrix" values="0 0 0 0 0 0 0 0 0 0 0 0 0 0 0 0 0 0 127 0" result="hardAlpha"/>
<feMorphology radius="2" operator="dilate" in="SourceAlpha" result="effect1_dropShadow_16_151"/>
<feOffset dx="2" dy="2"/>
<feGaussianBlur stdDeviation="5"/>
<feComposite in2="hardAlpha" operator="out"/>
<feColorMatrix type="matrix" values="0 0 0 0 0 0 0 0 0 0 0 0 0 0 0 0 0 0 0.25 0"/>
<feBlend mode="normal" in2="BackgroundImageFix" result="effect1_dropShadow_16_151"/>
<feBlend mode="normal" in="SourceGraphic" in2="effect1_dropShadow_16_151" result="shape"/>
</filter>
</defs>
</svg>
