<svg width="168" height="168" viewBox="0 0 168 168" fill="none" xmlns="http://www.w3.org/2000/svg">
<circle cx="84" cy="84" r="84" fill="#00854E" fill-opacity="0.3"/>
<g filter="url(#filter0_d_20_130)">
<circle cx="84.4545" cy="84.4545" r="67.4545" fill="#00854E"/>
</g>
<path d="M63.3 76.8875C63.3 74.9547 64.0678 73.1011 65.4345 71.7344C66.8012 70.3678 68.6548 69.6 70.5875 69.6H98.4125C100.345 69.6 102.199 70.3678 103.566 71.7344C104.932 73.1011 105.7 74.9547 105.7 76.8875V91.4625C105.7 93.3952 104.932 95.2488 103.566 96.6155C102.199 97.9822 100.345 98.75 98.4125 98.75H70.5875C68.6548 98.75 66.8012 97.9822 65.4345 96.6155C64.0678 95.2488 63.3 93.3952 63.3 91.4625V76.8875ZM76.9369 80.5869L75.225 82.3014L73.5131 80.5869C73.2643 80.3381 72.9269 80.1983 72.575 80.1983C72.2232 80.1983 71.8857 80.3381 71.6369 80.5869C71.3881 80.8357 71.2484 81.1731 71.2484 81.525C71.2484 81.8768 71.3881 82.2143 71.6369 82.4631L73.3515 84.175L71.6369 85.8869C71.3881 86.1357 71.2484 86.4731 71.2484 86.825C71.2484 87.1768 71.3881 87.5143 71.6369 87.7631C71.8857 88.0119 72.2232 88.1516 72.575 88.1516C72.9269 88.1516 73.2643 88.0119 73.5131 87.7631L75.225 86.0485L76.9369 87.7631C77.1857 88.0119 77.5232 88.1516 77.875 88.1516C78.2269 88.1516 78.5643 88.0119 78.8131 87.7631C79.0619 87.5143 79.2017 87.1768 79.2017 86.825C79.2017 86.4731 79.0619 86.1357 78.8131 85.8869L77.0986 84.175L78.8131 82.4631C78.9363 82.3399 79.0341 82.1936 79.1007 82.0327C79.1674 81.8717 79.2017 81.6992 79.2017 81.525C79.2017 81.3508 79.1674 81.1782 79.1007 81.0173C79.0341 80.8563 78.9363 80.7101 78.8131 80.5869C78.69 80.4637 78.5437 80.366 78.3827 80.2993C78.2218 80.2326 78.0493 80.1983 77.875 80.1983C77.7008 80.1983 77.5283 80.2326 77.3674 80.2993C77.2064 80.366 77.0601 80.4637 76.9369 80.5869ZM87.5369 80.5869L85.825 82.3014L84.1131 80.5869C83.8643 80.3381 83.5269 80.1983 83.175 80.1983C82.8232 80.1983 82.4857 80.3381 82.2369 80.5869C81.9881 80.8357 81.8484 81.1731 81.8484 81.525C81.8484 81.8768 81.9881 82.2143 82.2369 82.4631L83.9515 84.175L82.2369 85.8869C81.9881 86.1357 81.8484 86.4731 81.8484 86.825C81.8484 87.1768 81.9881 87.5143 82.2369 87.7631C82.4857 88.0119 82.8232 88.1516 83.175 88.1516C83.5269 88.1516 83.8643 88.0119 84.1131 87.7631L85.825 86.0485L87.5369 87.7631C87.7857 88.0119 88.1232 88.1516 88.475 88.1516C88.8269 88.1516 89.1643 88.0119 89.4131 87.7631C89.6619 87.5143 89.8017 87.1768 89.8017 86.825C89.8017 86.4731 89.6619 86.1357 89.4131 85.8869L87.6986 84.175L89.4131 82.4631C89.6619 82.2143 89.8017 81.8768 89.8017 81.525C89.8017 81.1731 89.6619 80.8357 89.4131 80.5869C89.1643 80.3381 88.8269 80.1983 88.475 80.1983C88.1232 80.1983 87.7857 80.3381 87.5369 80.5869ZM92.45 86.825C92.45 87.1764 92.5896 87.5134 92.8381 87.7619C93.0866 88.0104 93.4236 88.15 93.775 88.15H99.075C99.4265 88.15 99.7635 88.0104 100.012 87.7619C100.26 87.5134 100.4 87.1764 100.4 86.825C100.4 86.4736 100.26 86.1365 100.012 85.8881C99.7635 85.6396 99.4265 85.5 99.075 85.5H93.775C93.4236 85.5 93.0866 85.6396 92.8381 85.8881C92.5896 86.1365 92.45 86.4736 92.45 86.825Z" fill="white"/>
<defs>
<filter id="filter0_d_20_130" x="7" y="7" width="158.909" height="158.909" filterUnits="userSpaceOnUse" color-interpolation-filters="sRGB">
<feFlood flood-opacity="0" result="BackgroundImageFix"/>
<feColorMatrix in="SourceAlpha" type="matrix" values="0 0 0 0 0 0 0 0 0 0 0 0 0 0 0 0 0 0 127 0" result="hardAlpha"/>
<feMorphology radius="2" operator="dilate" in="SourceAlpha" result="effect1_dropShadow_20_130"/>
<feOffset dx="2" dy="2"/>
<feGaussianBlur stdDeviation="5"/>
<feComposite in2="hardAlpha" operator="out"/>
<feColorMatrix type="matrix" values="0 0 0 0 0 0 0 0 0 0 0 0 0 0 0 0 0 0 0.25 0"/>
<feBlend mode="normal" in2="BackgroundImageFix" result="effect1_dropShadow_20_130"/>
<feBlend mode="normal" in="SourceGraphic" in2="effect1_dropShadow_20_130" result="shape"/>
</filter>
</defs>
</svg>
