<svg width="168" height="168" viewBox="0 0 168 168" fill="none" xmlns="http://www.w3.org/2000/svg">
<circle cx="84" cy="84" r="84" fill="#00854E" fill-opacity="0.3"/>
<g filter="url(#filter0_d_20_234)">
<circle cx="84.4545" cy="84.4545" r="67.4545" fill="#00854E"/>
</g>
<path d="M86.25 63.75C80.8793 63.75 75.7287 65.8835 71.931 69.6811C68.1334 73.4787 66 78.6294 66 84C66 84.135 66.0225 84.27 66.0225 84.4275L61.8825 80.2875L58.71 83.46L68.25 93L77.79 83.46L74.6175 80.2875L70.5225 84.3825C70.5225 84.2475 70.5 84.135 70.5 84C70.5 75.315 77.565 68.25 86.25 68.25C94.935 68.25 102 75.315 102 84C102 92.685 94.935 99.75 86.25 99.75C81.975 99.75 78.105 98.04 75.27 95.2725L72.075 98.445C75.8552 102.165 80.9463 104.25 86.25 104.25C91.6206 104.25 96.7713 102.117 100.569 98.3189C104.366 94.5213 106.5 89.3706 106.5 84C106.5 78.6294 104.366 73.4787 100.569 69.6811C96.7713 65.8835 91.6206 63.75 86.25 63.75ZM90.75 81.75V79.5C90.75 77.025 88.725 75 86.25 75C83.775 75 81.75 77.025 81.75 79.5V81.75C80.5125 81.75 79.5 82.7625 79.5 84V90.75C79.5 91.9875 80.5125 93 81.75 93H90.75C91.9875 93 93 91.9875 93 90.75V84C93 82.7625 91.9875 81.75 90.75 81.75ZM88.5 81.75H84V79.5C84 78.2625 85.0125 77.25 86.25 77.25C87.4875 77.25 88.5 78.2625 88.5 79.5V81.75Z" fill="white"/>
<defs>
<filter id="filter0_d_20_234" x="7" y="7" width="158.909" height="158.909" filterUnits="userSpaceOnUse" color-interpolation-filters="sRGB">
<feFlood flood-opacity="0" result="BackgroundImageFix"/>
<feColorMatrix in="SourceAlpha" type="matrix" values="0 0 0 0 0 0 0 0 0 0 0 0 0 0 0 0 0 0 127 0" result="hardAlpha"/>
<feMorphology radius="2" operator="dilate" in="SourceAlpha" result="effect1_dropShadow_20_234"/>
<feOffset dx="2" dy="2"/>
<feGaussianBlur stdDeviation="5"/>
<feComposite in2="hardAlpha" operator="out"/>
<feColorMatrix type="matrix" values="0 0 0 0 0 0 0 0 0 0 0 0 0 0 0 0 0 0 0.25 0"/>
<feBlend mode="normal" in2="BackgroundImageFix" result="effect1_dropShadow_20_234"/>
<feBlend mode="normal" in="SourceGraphic" in2="effect1_dropShadow_20_234" result="shape"/>
</filter>
</defs>
</svg>
