<svg width="92" height="92" viewBox="0 0 92 92" fill="none" xmlns="http://www.w3.org/2000/svg">
<g filter="url(#filter0_f_69_145)">
<path d="M41 6.88675C44.094 5.10042 47.906 5.10042 51 6.88675L77.3731 22.1132C80.4671 23.8996 82.3731 27.2008 82.3731 30.7735V61.2265C82.3731 64.7992 80.4671 68.1004 77.3731 69.8867L51 85.1133C47.906 86.8996 44.094 86.8996 41 85.1133L14.6269 69.8867C11.5329 68.1004 9.62693 64.7992 9.62693 61.2265V30.7735C9.62693 27.2008 11.5329 23.8996 14.6269 22.1132L41 6.88675Z" fill="#1A1A1A" fill-opacity="0.3"/>
</g>
<path d="M41 8.88675C44.094 7.10042 47.906 7.10042 51 8.88675L75.641 23.1132C78.735 24.8996 80.641 28.2008 80.641 31.7735V60.2265C80.641 63.7992 78.735 67.1004 75.641 68.8868L51 83.1133C47.906 84.8996 44.094 84.8996 41 83.1133L16.359 68.8867C13.265 67.1004 11.359 63.7992 11.359 60.2265V31.7735C11.359 28.2008 13.265 24.8996 16.359 23.1132L41 8.88675Z" fill="#00854E"/>
<path d="M41.5 3.75278C44.2846 2.14508 47.7154 2.14508 50.5 3.75278L80.3372 20.9793C83.1218 22.587 84.8372 25.5581 84.8372 28.7735V63.2265C84.8372 66.4419 83.1218 69.413 80.3372 71.0207L50.5 88.2472C47.7154 89.8549 44.2846 89.8549 41.5 88.2472L11.6628 71.0207C8.87822 69.413 7.16283 66.4419 7.16283 63.2265V28.7735C7.16283 25.5581 8.87822 22.587 11.6628 20.9793L41.5 3.75278Z" stroke="#00854E" stroke-opacity="0.6" stroke-width="2"/>
<path d="M38.3958 27.2501C40.8542 26.8959 43.4583 29.5834 44.2083 33.2918C44.9583 36.9793 43.6042 40.2709 41.1458 40.6459C38.7083 41.0209 36.0833 38.3334 35.3125 34.6251C34.5417 30.9376 35.9375 27.6459 38.3958 27.2501ZM53.2917 27.2501C55.7708 27.6459 57.1458 30.9376 56.4167 34.6251C55.625 38.3334 53.0208 41.0209 50.5625 40.6459C48.0833 40.2709 46.7292 36.9793 47.5 33.2918C48.25 29.5834 50.8542 26.8959 53.2917 27.2501ZM27.25 36.8334C29.625 35.8126 32.8542 37.6668 34.5417 40.8959C36.125 44.1876 35.5833 47.6459 33.2292 48.6668C30.875 49.6876 27.6667 47.8543 26.0208 44.5834C24.375 41.3126 24.9583 37.8334 27.25 36.8334ZM64.75 36.8334C67.0417 37.8334 67.625 41.3126 65.9792 44.5834C64.3333 47.8543 61.125 49.6876 58.7708 48.6668C56.4167 47.6459 55.875 44.1876 57.4583 40.8959C59.1458 37.6668 62.375 35.8126 64.75 36.8334ZM61.2708 59.2918C61.3542 61.2501 59.8542 63.4168 58.0625 64.2293C54.3333 65.9376 49.9167 62.3959 45.7708 62.3959C41.625 62.3959 37.1667 66.0834 33.5 64.2293C31.4167 63.2084 29.9792 60.5001 30.25 58.2501C30.625 55.1459 34.3542 53.4793 36.5625 51.2084C39.5 48.2709 41.5833 42.7501 45.7708 42.7501C49.9375 42.7501 52.1458 48.1876 54.9583 51.2084C57.2708 53.7501 61.125 55.8959 61.2708 59.2918Z" fill="white"/>
<g clip-path="url(#clip0_69_145)">
<path d="M43.2222 49.4722C44.7569 49.4722 46 50.6909 46 52.1944C46 50.6909 47.2431 49.4722 48.7778 49.4722C50.3125 49.4722 51.5556 50.6909 51.5556 52.1944C51.5556 54.4604 49.3097 55.2597 46.2722 58.8666C46.2388 58.9062 46.1971 58.9381 46.1501 58.9599C46.1031 58.9817 46.0518 58.9931 46 58.9931C45.9482 58.9931 45.8969 58.9817 45.8499 58.9599C45.8029 58.9381 45.7612 58.9062 45.7278 58.8666C42.6903 55.2597 40.4444 54.4604 40.4444 52.1944C40.4444 50.6909 41.6875 49.4722 43.2222 49.4722Z" fill="#00854E"/>
</g>
<defs>
<filter id="filter0_f_69_145" x="4.62693" y="0.546875" width="82.7461" height="90.9062" filterUnits="userSpaceOnUse" color-interpolation-filters="sRGB">
<feFlood flood-opacity="0" result="BackgroundImageFix"/>
<feBlend mode="normal" in="SourceGraphic" in2="BackgroundImageFix" result="shape"/>
<feGaussianBlur stdDeviation="2.5" result="effect1_foregroundBlur_69_145"/>
</filter>
<clipPath id="clip0_69_145">
<rect width="11.1111" height="11.1111" fill="white" transform="translate(40.4444 48.7778)"/>
</clipPath>
</defs>
</svg>
