<svg width="26" height="26" viewBox="0 0 26 26" fill="none" xmlns="http://www.w3.org/2000/svg">
<path d="M1.33331 6.00016C1.33331 4.76249 1.82498 3.5755 2.70015 2.70033C3.57532 1.82516 4.7623 1.3335 5.99998 1.3335H20C21.2377 1.3335 22.4246 1.82516 23.2998 2.70033C24.175 3.5755 24.6666 4.76249 24.6666 6.00016V11.8335H1.33331V6.00016Z" stroke="black" stroke-width="2" stroke-linecap="round" stroke-linejoin="round"/>
<path d="M20.5833 18.25H17.0833" stroke="black" stroke-width="2" stroke-linecap="round"/>
<path d="M13 11.8335H24.6666V20.0002C24.6666 21.2378 24.175 22.4248 23.2998 23.3C22.4246 24.1752 21.2377 24.6668 20 24.6668H13V11.8335ZM13 11.8335H1.33331V20.0002C1.33331 21.2378 1.82498 22.4248 2.70015 23.3C3.57532 24.1752 4.7623 24.6668 5.99998 24.6668H13V11.8335Z" stroke="black" stroke-width="2" stroke-linecap="round" stroke-linejoin="round"/>
<path d="M5.41663 20L7.16663 18.25M7.16663 18.25L8.91663 16.5M7.16663 18.25L8.91663 20M7.16663 18.25L5.41663 16.5" stroke="black" stroke-width="2" stroke-linecap="round"/>
</svg>
