<svg width="22" height="22" viewBox="0 0 22 22" fill="none" xmlns="http://www.w3.org/2000/svg">
<g clip-path="url(#clip0_40_82)">
<path d="M14.4375 11.6875C14.4375 12.5992 14.0753 13.4735 13.4307 14.1182C12.786 14.7628 11.9117 15.125 11 15.125C10.0883 15.125 9.21398 14.7628 8.56932 14.1182C7.92466 13.4735 7.5625 12.5992 7.5625 11.6875C7.5625 10.7758 7.92466 9.90148 8.56932 9.25682C9.21398 8.61216 10.0883 8.25 11 8.25C11.9117 8.25 12.786 8.61216 13.4307 9.25682C14.0753 9.90148 14.4375 10.7758 14.4375 11.6875Z" fill="white"/>
<path d="M2.75 5.5C2.02065 5.5 1.32118 5.78973 0.805456 6.30546C0.289731 6.82118 0 7.52065 0 8.25L0 16.5C0 17.2293 0.289731 17.9288 0.805456 18.4445C1.32118 18.9603 2.02065 19.25 2.75 19.25H19.25C19.9793 19.25 20.6788 18.9603 21.1945 18.4445C21.7103 17.9288 22 17.2293 22 16.5V8.25C22 7.52065 21.7103 6.82118 21.1945 6.30546C20.6788 5.78973 19.9793 5.5 19.25 5.5H17.6385C16.9092 5.49984 16.2099 5.21001 15.6942 4.69425L14.5558 3.55575C14.0401 3.03999 13.3408 2.75016 12.6115 2.75H9.3885C8.65921 2.75016 7.95986 3.03999 7.44425 3.55575L6.30575 4.69425C5.79014 5.21001 5.09079 5.49984 4.3615 5.5H2.75ZM3.4375 8.25C3.25516 8.25 3.0803 8.17757 2.95136 8.04864C2.82243 7.9197 2.75 7.74484 2.75 7.5625C2.75 7.38016 2.82243 7.2053 2.95136 7.07636C3.0803 6.94743 3.25516 6.875 3.4375 6.875C3.61984 6.875 3.7947 6.94743 3.92364 7.07636C4.05257 7.2053 4.125 7.38016 4.125 7.5625C4.125 7.74484 4.05257 7.9197 3.92364 8.04864C3.7947 8.17757 3.61984 8.25 3.4375 8.25ZM15.8125 11.6875C15.8125 12.9639 15.3055 14.1879 14.403 15.0905C13.5004 15.993 12.2764 16.5 11 16.5C9.72365 16.5 8.49957 15.993 7.59705 15.0905C6.69453 14.1879 6.1875 12.9639 6.1875 11.6875C6.1875 10.4111 6.69453 9.18707 7.59705 8.28455C8.49957 7.38203 9.72365 6.875 11 6.875C12.2764 6.875 13.5004 7.38203 14.403 8.28455C15.3055 9.18707 15.8125 10.4111 15.8125 11.6875Z" fill="white"/>
</g>
<defs>
<clipPath id="clip0_40_82">
<rect width="22" height="22" fill="white"/>
</clipPath>
</defs>
</svg>
