<svg width="21" height="20" viewBox="0 0 21 20" fill="none" xmlns="http://www.w3.org/2000/svg">
<path fill-rule="evenodd" clip-rule="evenodd" d="M12.4165 4.75008V2.83341H8.58317V4.75008H12.4165ZM2.83317 6.66675V17.2084H18.1665V6.66675H2.83317ZM18.1665 4.75008C19.2303 4.75008 20.0832 5.603 20.0832 6.66675V17.2084C20.0832 18.2722 19.2303 19.1251 18.1665 19.1251H2.83317C1.76942 19.1251 0.916504 18.2722 0.916504 17.2084L0.926087 6.66675C0.926087 5.603 1.76942 4.75008 2.83317 4.75008H6.6665V2.83341C6.6665 1.76966 7.51942 0.916748 8.58317 0.916748H12.4165C13.4803 0.916748 14.3332 1.76966 14.3332 2.83341V4.75008H18.1665Z" fill="#1A1A1A" fill-opacity="0.7"/>
</svg>
