<svg width="18" height="18" viewBox="0 0 18 18" fill="none" xmlns="http://www.w3.org/2000/svg">
<path d="M8.92968 10.9688C9.45183 10.9688 9.95259 10.7614 10.3218 10.3922C10.691 10.023 10.8984 9.5222 10.8984 9.00005C10.8984 8.9424 10.8958 8.88527 10.8909 8.82884L8.75847 10.9612C8.8149 10.9662 8.87185 10.9688 8.92968 10.9688ZM15.4462 2.91029L14.6953 2.16005C14.6689 2.1337 14.6332 2.1189 14.5959 2.1189C14.5586 2.1189 14.5229 2.1337 14.4965 2.16005L12.5749 4.08222C11.5148 3.54046 10.3232 3.26958 8.99999 3.26958C5.62148 3.26958 3.10078 5.02915 1.43789 8.54829C1.37105 8.68983 1.33638 8.84441 1.33638 9.00093C1.33638 9.15745 1.37105 9.31203 1.43789 9.45357C2.10234 10.8531 2.90244 11.9749 3.83818 12.8189L1.97859 14.6778C1.95224 14.7042 1.93743 14.7399 1.93743 14.7772C1.93743 14.8145 1.95224 14.8502 1.97859 14.8766L2.729 15.627C2.75537 15.6534 2.79112 15.6682 2.8284 15.6682C2.86568 15.6682 2.90144 15.6534 2.92781 15.627L15.4462 3.10927C15.4593 3.09621 15.4697 3.0807 15.4768 3.06363C15.4838 3.04656 15.4875 3.02826 15.4875 3.00978C15.4875 2.9913 15.4838 2.973 15.4768 2.95593C15.4697 2.93886 15.4593 2.92335 15.4462 2.91029ZM5.83593 9.00005C5.83588 8.46569 5.97424 7.94042 6.23754 7.47542C6.50083 7.01042 6.88007 6.62155 7.33832 6.34668C7.79657 6.07182 8.31821 5.92033 8.85241 5.90699C9.3866 5.89364 9.91515 6.01888 10.3866 6.27052L9.53191 7.12517C9.18724 7.01481 8.81883 7.00151 8.4671 7.08675C8.11537 7.17199 7.79391 7.35247 7.538 7.60838C7.2821 7.86428 7.10162 8.18574 7.01638 8.53747C6.93114 8.8892 6.94444 9.25761 7.0548 9.60228L6.20015 10.4569C5.96032 10.0088 5.83518 9.5083 5.83593 9.00005Z" fill="#1A1A1A" fill-opacity="0.4"/>
<path d="M16.5621 8.54644C15.9434 7.24331 15.2069 6.18071 14.3527 5.35864L11.819 7.89253C12.0326 8.45084 12.0799 9.05904 11.9553 9.64367C11.8307 10.2283 11.5394 10.7643 11.1168 11.187C10.6941 11.6097 10.158 11.901 9.5734 12.0256C8.98877 12.1502 8.38056 12.1028 7.82226 11.8893L5.67316 14.0384C6.67019 14.4997 7.77913 14.7304 8.99999 14.7304C12.3785 14.7304 14.8992 12.9708 16.5621 9.45171C16.629 9.31018 16.6636 9.1556 16.6636 8.99907C16.6636 8.84255 16.629 8.68797 16.5621 8.54644Z" fill="#1A1A1A" fill-opacity="0.4"/>
</svg>
