<svg width="29" height="29" viewBox="0 0 29 29" fill="none" xmlns="http://www.w3.org/2000/svg">
<g clip-path="url(#clip0_16_91)">
<path fill-rule="evenodd" clip-rule="evenodd" d="M14.5 0C6.49117 0 0 6.49238 0 14.5C0 22.5076 6.49117 29 14.5 29C22.5076 29 29 22.5076 29 14.5C29 6.49238 22.5076 0 14.5 0ZM14.6692 22.9801C9.99533 22.9801 6.21083 19.1859 6.21083 14.5C6.21083 9.81408 9.99533 6.01992 14.6692 6.01992C16.9529 6.01992 18.8621 6.86212 20.3266 8.22996L17.9413 10.62V10.6152C17.0532 9.76696 15.927 9.33196 14.6692 9.33196C11.8779 9.33196 9.60988 11.6955 9.60988 14.4952C9.60988 17.2925 11.8779 19.6632 14.6692 19.6632C17.2018 19.6632 18.9249 18.2108 19.2802 16.217H14.6692V12.9098H22.626C22.7324 13.4778 22.7892 14.0698 22.7892 14.6909C22.7892 19.5363 19.5545 22.9801 14.6692 22.9801Z" fill="#1A1A1A" fill-opacity="0.5"/>
</g>
<defs>
<clipPath id="clip0_16_91">
<rect width="29" height="29" fill="white"/>
</clipPath>
</defs>
</svg>
