<svg width="19" height="19" viewBox="0 0 19 19" fill="none" xmlns="http://www.w3.org/2000/svg">
<path fill-rule="evenodd" clip-rule="evenodd" d="M14.1215 0.538157C15.1831 0.754524 16.1657 1.25614 16.9636 1.98909C17.7614 2.72203 18.3445 3.65859 18.65 4.69806C18.933 5.65115 18.9751 6.65953 18.7724 7.63369C18.4794 8.96833 17.742 10.164 16.6809 11.0249C15.6198 11.8858 14.2978 12.3611 12.9314 12.3728C12.3548 12.3728 11.7809 12.2899 11.2293 12.1227L10.1762 13.3575L9.67723 13.5879H8.39371V15.5625L7.7355 16.2207H5.76086V18.1954L5.10265 18.8536H1.15338L0.495163 18.1954V15.1584L0.687361 14.6937L7.23526 8.14578C7.04943 7.54724 6.96055 6.92282 6.97197 6.2962C6.98397 5.41951 7.18922 4.55626 7.5731 3.76798C7.95697 2.97971 8.51002 2.28583 9.19281 1.7358C9.8756 1.18577 10.6713 0.793143 11.5232 0.585901C12.3752 0.378658 13.2623 0.361907 14.1215 0.53684V0.538157ZM15.8565 10.0164C16.6835 9.34676 17.2586 8.41615 17.4876 7.37698L17.4928 7.38357C17.6559 6.62373 17.6266 5.83518 17.4075 5.08957C17.1883 4.34396 16.7864 3.66492 16.2381 3.11415C15.6898 2.56339 15.0126 2.15835 14.268 1.93585C13.5234 1.71335 12.735 1.68044 11.9744 1.8401C10.9486 2.06777 10.0285 2.63209 9.36052 3.44319C8.69256 4.25429 8.31515 5.26554 8.2884 6.31595C8.27524 6.91624 8.38055 7.51126 8.60303 8.06679L8.45822 8.78161L1.81159 15.4309V17.5372H4.44444V15.5625L5.10265 14.9043H7.07729V12.9297L7.7355 12.2715H9.37445L10.5276 10.934L11.2662 10.7497C11.7985 10.9577 12.3652 11.064 12.9367 11.063C14.0004 11.0548 15.0298 10.6858 15.8565 10.0164ZM14.7534 6.41994C14.8572 6.27652 14.931 6.11363 14.9703 5.94103C15.0097 5.76842 15.0139 5.58964 14.9826 5.41539C14.9513 5.24114 14.8852 5.07499 14.7882 4.92689C14.6911 4.77878 14.5653 4.65177 14.418 4.55344C14.2708 4.45511 14.1053 4.38749 13.9313 4.35462C13.7573 4.32175 13.5785 4.32431 13.4056 4.36215C13.2326 4.39999 13.0691 4.47232 12.9247 4.57482C12.7804 4.67733 12.6582 4.80789 12.5655 4.95871C12.3871 5.24884 12.3281 5.59679 12.4009 5.92949C12.4737 6.26219 12.6726 6.55374 12.9558 6.74289C13.239 6.93203 13.5845 7.00406 13.9197 6.94384C14.2549 6.88363 14.5537 6.69584 14.7534 6.41994Z" fill="#1A1A1A" fill-opacity="0.8"/>
</svg>
