<svg width="20" height="20" viewBox="0 0 20 20" fill="none" xmlns="http://www.w3.org/2000/svg">
<path d="M10 19.1668C15.0627 19.1668 19.1667 15.0629 19.1667 10.0002C19.1667 4.93741 15.0627 0.833496 10 0.833496C4.93725 0.833496 0.833328 4.93741 0.833328 10.0002C0.833328 15.0629 4.93725 19.1668 10 19.1668Z" stroke="#1A1A1A" stroke-opacity="0.8" stroke-width="1.5" stroke-linecap="round" stroke-linejoin="round"/>
<path d="M12.75 6.79199C12.1221 6.16408 11.0166 5.72774 10 5.70024M7.25 12.7503C7.84033 13.5387 8.93942 13.9878 10 14.0254M10 5.70024C8.79 5.66724 7.70833 6.21449 7.70833 7.70866C7.70833 10.4587 12.75 9.08366 12.75 11.8337C12.75 13.4021 11.408 14.0758 10 14.0254M10 5.70024V4.04199M10 14.0254V15.9587" stroke="#1A1A1A" stroke-opacity="0.8" stroke-width="1.5" stroke-linecap="round" stroke-linejoin="round"/>
</svg>
