<svg width="14" height="12" viewBox="0 0 14 12" fill="none" xmlns="http://www.w3.org/2000/svg">
<path d="M4.68576 0.293474C5.43395 0.185684 6.22652 1.00362 6.45478 2.13224C6.68304 3.25452 6.27091 4.25634 5.52272 4.37047C4.78087 4.4846 3.98196 3.66666 3.74735 2.53804C3.51275 1.41576 3.93757 0.413945 4.68576 0.293474ZM9.21927 0.293474C9.9738 0.413945 10.3923 1.41576 10.1704 2.53804C9.92942 3.66666 9.13685 4.4846 8.38866 4.37047C7.63413 4.25634 7.22199 3.25452 7.45659 2.13224C7.68485 1.00362 8.47743 0.185684 9.21927 0.293474ZM1.29355 3.21014C2.01638 2.89945 2.99917 3.46376 3.51275 4.44655C3.99464 5.44837 3.82978 6.5009 3.1133 6.81159C2.39681 7.12228 1.42036 6.56431 0.919456 5.56884C0.41855 4.57337 0.596086 3.51449 1.29355 3.21014ZM12.7066 3.21014C13.4041 3.51449 13.5816 4.57337 13.0807 5.56884C12.5798 6.56431 11.6033 7.12228 10.8868 6.81159C10.1704 6.5009 10.0055 5.44837 10.4874 4.44655C11.001 3.46376 11.9838 2.89945 12.7066 3.21014ZM11.6477 10.0453C11.6731 10.6413 11.2166 11.3007 10.6713 11.548C9.5363 12.0679 8.1921 10.99 6.93033 10.99C5.66855 10.99 4.31167 12.1123 3.19572 11.548C2.56167 11.2373 2.12417 10.413 2.20659 9.72826C2.32072 8.78351 3.45569 8.27626 4.12779 7.58514C5.02181 6.69112 5.65587 5.01087 6.93033 5.01087C8.19844 5.01087 8.87054 6.66576 9.72652 7.58514C10.4303 8.35869 11.6033 9.01177 11.6477 10.0453Z" fill="white"/>
</svg>
