<svg width="23" height="17" viewBox="0 0 23 17" fill="none" xmlns="http://www.w3.org/2000/svg">
<path d="M4.46875 0.6875C3.43275 0.6875 2.43918 1.09905 1.70661 1.83161C0.97405 2.56418 0.5625 3.55775 0.5625 4.59375V5.375H22.4375V4.59375C22.4375 3.55775 22.0259 2.56418 21.2934 1.83161C20.5608 1.09905 19.5673 0.6875 18.5312 0.6875H4.46875ZM22.4375 6.9375H0.5625V12.4062C0.5625 13.4423 0.97405 14.4358 1.70661 15.1684C2.43918 15.9009 3.43275 16.3125 4.46875 16.3125H18.5312C19.5673 16.3125 20.5608 15.9009 21.2934 15.1684C22.0259 14.4358 22.4375 13.4423 22.4375 12.4062V6.9375ZM15.4062 11.625H18.5312C18.7385 11.625 18.9372 11.7073 19.0837 11.8538C19.2302 12.0003 19.3125 12.199 19.3125 12.4062C19.3125 12.6135 19.2302 12.8122 19.0837 12.9587C18.9372 13.1052 18.7385 13.1875 18.5312 13.1875H15.4062C15.199 13.1875 15.0003 13.1052 14.8538 12.9587C14.7073 12.8122 14.625 12.6135 14.625 12.4062C14.625 12.199 14.7073 12.0003 14.8538 11.8538C15.0003 11.7073 15.199 11.625 15.4062 11.625Z" fill="#1A1A1A" fill-opacity="0.8"/>
</svg>
