<svg width="19" height="18" viewBox="0 0 19 18" fill="none" xmlns="http://www.w3.org/2000/svg">
<path d="M14.434 16.83L9.7433 14.4265L5.10455 16.929C4.97767 16.9976 4.83158 17.0223 4.6892 16.9993C4.33181 16.9418 4.08765 16.6045 4.14338 16.2459L4.98096 11.0422L1.16844 7.40294C1.06313 7.3029 0.995226 7.17148 0.972674 7.02944C0.945933 6.85699 0.988748 6.68098 1.09171 6.54008C1.19467 6.39918 1.34936 6.30493 1.52179 6.27802L6.72916 5.46496L9.0119 0.713629C9.06486 0.603006 9.14776 0.509436 9.2512 0.443531C9.35464 0.377625 9.47447 0.34202 9.59711 0.340754C9.71976 0.339488 9.8403 0.372611 9.94507 0.436368C10.0498 0.500124 10.1347 0.591962 10.1899 0.701469L12.5719 5.40332L17.7956 6.1064C17.9387 6.12492 18.0723 6.19218 18.1736 6.29438C18.4293 6.55168 18.4288 6.9672 18.1715 7.22287L14.4353 10.9413L15.3802 16.1264C15.4056 16.2679 15.3847 16.4144 15.3181 16.5435C15.1551 16.8686 14.758 16.9947 14.434 16.83ZM12.841 10.4434L15.9481 7.35147L11.6044 6.7647L9.62292 2.85401L7.72488 6.80512L3.39312 7.48186L6.56439 10.5092L5.86869 14.8359L9.72589 12.7559L13.6278 14.7551L12.841 10.4434Z" fill="#1A1A1A" fill-opacity="0.8"/>
</svg>
