<svg width="19" height="20" viewBox="0 0 19 20" fill="none" xmlns="http://www.w3.org/2000/svg">
<path fill-rule="evenodd" clip-rule="evenodd" d="M1.0625 0.375H3.8125V1.75H1.75V18.25H3.8125V19.625H1.0625L0.375 18.9375V1.0625L1.0625 0.375ZM9.3125 8.625H6.5625L5.875 7.9375V5.1875L6.5625 4.5H9.3125L10 5.1875V7.9375L9.3125 8.625ZM7.25 7.25H8.625V5.875H7.25V7.25ZM17.5625 8.625H13.4375L12.75 7.9375V3.8125L13.4375 3.125H17.5625L18.25 3.8125V7.9375L17.5625 8.625ZM14.125 7.25H16.875V4.5H14.125V7.25ZM9.3125 15.5H6.5625L5.875 14.8125V12.0625L6.5625 11.375H9.3125L10 12.0625V14.8125L9.3125 15.5ZM7.25 14.125H8.625V12.75H7.25V14.125ZM17.5625 16.875H13.4375L12.75 16.1875V12.0625L13.4375 11.375H17.5625L18.25 12.0625V16.1875L17.5625 16.875ZM14.125 15.5H16.875V12.75H14.125V15.5ZM12.75 12.75H10V14.125H12.75V12.75ZM12.75 5.875H10V7.25H12.75V5.875Z" fill="#1A1A1A" fill-opacity="0.8"/>
</svg>
