<svg width="92" height="93" viewBox="0 0 92 93" fill="none" xmlns="http://www.w3.org/2000/svg">
<g filter="url(#filter0_f_52_507)">
<path d="M41 7.36722C44.094 5.58089 47.906 5.58089 51 7.36722L77.3731 22.5937C80.4671 24.38 82.3731 27.6813 82.3731 31.254V61.707C82.3731 65.2796 80.4671 68.5809 77.3731 70.3672L51 85.5937C47.906 87.38 44.094 87.38 41 85.5937L14.6269 70.3672C11.5329 68.5809 9.62693 65.2796 9.62693 61.707V31.254C9.62693 27.6813 11.5329 24.38 14.6269 22.5937L41 7.36722Z" fill="#1A1A1A" fill-opacity="0.3"/>
</g>
<path d="M41 9.36722C44.094 7.58089 47.906 7.58089 51 9.36722L75.641 23.5937C78.735 25.38 80.641 28.6813 80.641 32.254V60.707C80.641 64.2796 78.735 67.5809 75.641 69.3672L51 83.5937C47.906 85.38 44.094 85.38 41 83.5937L16.359 69.3672C13.265 67.5809 11.359 64.2796 11.359 60.707V32.254C11.359 28.6813 13.265 25.38 16.359 23.5937L41 9.36722Z" fill="#00854E"/>
<path d="M50.5 4.23324L80.3372 21.4597C83.1218 23.0674 84.8372 26.0386 84.8372 29.254V63.707C84.8372 66.9224 83.1218 69.8935 80.3372 71.5012L50.5 88.7277C47.7154 90.3354 44.2846 90.3354 41.5 88.7277L11.6628 71.5012C8.87822 69.8935 7.16283 66.9224 7.16283 63.707V29.254C7.16283 26.0386 8.87822 23.0674 11.6628 21.4597L41.5 4.23325C44.2846 2.62555 47.7154 2.62555 50.5 4.23324Z" stroke="#00854E" stroke-opacity="0.6" stroke-width="2"/>
<path d="M38.3958 27.7306C40.8542 27.3764 43.4583 30.0639 44.2083 33.7722C44.9583 37.4597 43.6042 40.7514 41.1458 41.1264C38.7083 41.5014 36.0833 38.8139 35.3125 35.1056C34.5417 31.4181 35.9375 28.1264 38.3958 27.7306M53.2917 27.7306C55.7708 28.1264 57.1458 31.4181 56.4167 35.1056C55.625 38.8139 53.0208 41.5014 50.5625 41.1264C48.0833 40.7514 46.7292 37.4597 47.5 33.7722C48.25 30.0639 50.8542 27.3764 53.2917 27.7306M27.25 37.3139C29.625 36.2931 32.8542 38.1472 34.5417 41.3764C36.125 44.6681 35.5833 48.1264 33.2292 49.1472C30.875 50.1681 27.6667 48.3347 26.0208 45.0639C24.375 41.7931 24.9583 38.3139 27.25 37.3139ZM64.75 37.3139C67.0417 38.3139 67.625 41.7931 65.9792 45.0639C64.3333 48.3347 61.125 50.1681 58.7708 49.1472C56.4167 48.1264 55.875 44.6681 57.4583 41.3764C59.1458 38.1472 62.375 36.2931 64.75 37.3139ZM61.2708 59.7722C61.3542 61.7306 59.8542 63.8972 58.0625 64.7097C54.3333 66.4181 49.9167 62.8764 45.7708 62.8764C41.625 62.8764 37.1667 66.5639 33.5 64.7097C31.4167 63.6889 29.9792 60.9806 30.25 58.7306C30.625 55.6264 34.3542 53.9597 36.5625 51.6889C39.5 48.7514 41.5833 43.2306 45.7708 43.2306C49.9375 43.2306 52.1458 48.6681 54.9583 51.6889C57.2708 54.2306 61.125 56.3764 61.2708 59.7722Z" fill="white"/>
<g clip-path="url(#clip0_52_507)">
<path d="M43.2222 49.9526C44.7569 49.9526 46 51.1714 46 52.6749C46 51.1714 47.2431 49.9526 48.7778 49.9526C50.3125 49.9526 51.5556 51.1714 51.5556 52.6749C51.5556 54.9408 49.3097 55.7401 46.2722 59.3471C46.2388 59.3867 46.1971 59.4185 46.1501 59.4404C46.1031 59.4622 46.0518 59.4735 46 59.4735C45.9482 59.4735 45.8969 59.4622 45.8499 59.4404C45.8029 59.4185 45.7612 59.3867 45.7278 59.3471C42.6903 55.7401 40.4444 54.9408 40.4444 52.6749C40.4444 51.1714 41.6875 49.9526 43.2222 49.9526Z" fill="#00854E"/>
</g>
<defs>
<filter id="filter0_f_52_507" x="4.62693" y="1.02734" width="82.7461" height="90.9062" filterUnits="userSpaceOnUse" color-interpolation-filters="sRGB">
<feFlood flood-opacity="0" result="BackgroundImageFix"/>
<feBlend mode="normal" in="SourceGraphic" in2="BackgroundImageFix" result="shape"/>
<feGaussianBlur stdDeviation="2.5" result="effect1_foregroundBlur_52_507"/>
</filter>
<clipPath id="clip0_52_507">
<rect width="11.1111" height="11.1111" fill="white" transform="translate(40.4444 49.2583)"/>
</clipPath>
</defs>
</svg>
