<svg width="18" height="22" viewBox="0 0 18 22" fill="none" xmlns="http://www.w3.org/2000/svg">
<path d="M8.99999 0.5C6.81275 0.50258 4.71583 1.3726 3.16921 2.91922C1.6226 4.46584 0.752574 6.56276 0.749994 8.75C0.747374 10.5374 1.33123 12.2763 2.41199 13.7C2.41199 13.7 2.63699 13.9963 2.67374 14.039L8.99999 21.5L15.3292 14.0353C15.3622 13.9955 15.588 13.7 15.588 13.7L15.5887 13.6978C16.669 12.2747 17.2526 10.5366 17.25 8.75C17.2474 6.56276 16.3774 4.46584 14.8308 2.91922C13.2842 1.3726 11.1872 0.50258 8.99999 0.5ZM8.99999 11.75C8.40665 11.75 7.82663 11.5741 7.33328 11.2444C6.83994 10.9148 6.45542 10.4462 6.22835 9.89805C6.00129 9.34987 5.94188 8.74667 6.05764 8.16473C6.17339 7.58279 6.45912 7.04824 6.87867 6.62868C7.29823 6.20912 7.83278 5.9234 8.41472 5.80764C8.99667 5.69189 9.59986 5.7513 10.148 5.97836C10.6962 6.20542 11.1648 6.58994 11.4944 7.08329C11.824 7.57664 12 8.15666 12 8.75C11.999 9.54535 11.6826 10.3078 11.1202 10.8702C10.5578 11.4326 9.79534 11.749 8.99999 11.75Z" fill="#1A1A1A" fill-opacity="0.8"/>
</svg>
