<svg width="16" height="16" viewBox="0 0 16 16" fill="none" xmlns="http://www.w3.org/2000/svg">
<path d="M7.372 0.0252384C8.98719 -0.102096 10.603 0.263995 12.0055 1.07507C13.4081 1.88614 14.5314 3.10396 15.2266 4.56739C15.9219 6.03082 16.1565 7.67087 15.8993 9.27052C15.6421 10.8702 14.9052 12.354 13.7862 13.5257C12.6672 14.6974 11.2188 15.5018 9.6327 15.8323C8.04657 16.1628 6.39747 16.0039 4.90361 15.3767C3.40976 14.7494 2.14156 13.6834 1.26683 12.3196C0.392109 10.9558 -0.0479097 9.35857 0.005001 7.73924C0.0108358 7.54033 0.0954491 7.35188 0.240227 7.21535C0.385005 7.07883 0.578088 7.0054 0.777001 7.01124C0.975913 7.01707 1.16436 7.10169 1.30089 7.24646C1.43741 7.39124 1.51084 7.58433 1.505 7.78324C1.45432 9.31609 1.9473 10.8175 2.89676 12.022C3.84623 13.2264 5.19101 14.0564 6.69332 14.365C8.19564 14.6737 9.75871 14.4412 11.1061 13.7086C12.4536 12.9761 13.4986 11.7906 14.0563 10.362C14.6141 8.93329 14.6488 7.35341 14.1541 5.90167C13.6595 4.44993 12.6674 3.21985 11.3534 2.42895C10.0394 1.63805 8.48799 1.33727 6.97359 1.5798C5.45919 1.82233 4.07933 2.59254 3.078 3.75424L2.874 4.00324H4.751L4.853 4.01024C5.03327 4.03413 5.19872 4.1227 5.31856 4.25947C5.4384 4.39624 5.50447 4.57189 5.50447 4.75374C5.50447 4.93558 5.4384 5.11124 5.31856 5.24801C5.19872 5.38478 5.03327 5.47335 4.853 5.49724L4.751 5.50324H1.253L1.151 5.49724C0.988703 5.47492 0.838176 5.40008 0.722425 5.28415C0.606673 5.16821 0.532065 5.01757 0.510001 4.85524L0.503001 4.75324V0.753238L0.510001 0.652238C0.532065 0.489906 0.606673 0.339262 0.722425 0.22333C0.838176 0.107398 0.988703 0.032555 1.151 0.0102383L1.253 0.00423823L1.355 0.0102383C1.5173 0.032555 1.66783 0.107398 1.78358 0.22333C1.89933 0.339262 1.97394 0.489906 1.996 0.652238L2.003 0.753238L2.002 2.70624C3.37471 1.14755 5.30123 0.185731 7.372 0.0252384ZM7.75 4.00324L7.852 4.01024C8.0143 4.03256 8.16483 4.1074 8.28058 4.22333C8.39633 4.33926 8.47094 4.48991 8.493 4.65224L8.5 4.75324V8.00024L10.25 8.00124L10.352 8.00824C10.5315 8.03294 10.696 8.12179 10.8151 8.25838C10.9342 8.39496 10.9998 8.57004 10.9998 8.75124C10.9998 8.93244 10.9342 9.10752 10.8151 9.2441C10.696 9.38068 10.5315 9.46954 10.352 9.49424L10.25 9.50124H7.75L7.648 9.49424C7.48585 9.47197 7.33543 9.39727 7.2197 9.28154C7.10396 9.16581 7.02927 9.01539 7.007 8.85324L7 8.75024V4.75324L7.007 4.65224C7.02906 4.48991 7.10367 4.33926 7.21942 4.22333C7.33518 4.1074 7.4857 4.03256 7.648 4.01024L7.75 4.00424V4.00324Z" fill="#1A1A1A" fill-opacity="0.8"/>
</svg>
