<svg width="29" height="29" viewBox="0 0 29 29" fill="none" xmlns="http://www.w3.org/2000/svg">
<g clip-path="url(#clip0_16_93)">
<path d="M14.5 0.579956C6.8121 0.579956 0.580002 6.81206 0.580002 14.5C0.580002 22.1879 6.8121 28.42 14.5 28.42C22.1879 28.42 28.42 22.1879 28.42 14.5C28.42 6.81206 22.1879 0.579956 14.5 0.579956ZM20.1623 11.9828C20.1681 12.1017 20.1695 12.2206 20.1695 12.3366C20.1695 15.9616 17.4131 20.139 12.37 20.139C10.8798 20.1415 9.4206 19.7135 8.16785 18.9065C8.381 18.9326 8.59995 18.9428 8.8218 18.9428C10.1065 18.9428 11.2883 18.5063 12.2264 17.7697C11.6547 17.7585 11.1007 17.5692 10.6417 17.2282C10.1827 16.8871 9.84151 16.4114 9.6657 15.8673C10.0763 15.9454 10.4992 15.929 10.9026 15.8195C10.282 15.694 9.72399 15.3577 9.32308 14.8678C8.92217 14.3778 8.70306 13.7642 8.7029 13.1312V13.0978C9.07265 13.3023 9.49605 13.427 9.94555 13.4415C9.36381 13.0542 8.95199 12.4593 8.79432 11.7785C8.63664 11.0977 8.74503 10.3823 9.0973 9.77876C9.78599 10.6256 10.6448 11.3183 11.6182 11.8121C12.5916 12.3059 13.6579 12.5898 14.748 12.6454C14.6094 12.0572 14.669 11.4396 14.9176 10.8887C15.1662 10.3379 15.5899 9.88459 16.1227 9.59934C16.6555 9.31409 17.2676 9.21285 17.8638 9.31138C18.4601 9.40991 19.0071 9.70267 19.4199 10.1442C20.0334 10.0228 20.6219 9.79768 21.1599 9.47861C20.9553 10.1139 20.5272 10.6534 19.9549 10.9968C20.4984 10.9313 21.0292 10.7852 21.5296 10.5632C21.162 11.1141 20.6989 11.5948 20.1623 11.9828Z" fill="#1A1A1A" fill-opacity="0.5"/>
</g>
<defs>
<clipPath id="clip0_16_93">
<rect width="29" height="29" fill="white"/>
</clipPath>
</defs>
</svg>
